# xmcd
# 
# Track frame offsets:
#     150
#     21079
#     41318
#     58462
#     77559
#     104515
#     123725
#     142994
#     160516
#     179161
#     201260
# 
# Disc length: 2981
# 
# Revision: 1
# Processed by: cddbd v1.5.2PL0 Copyright (c) Steve Scherf et al.
# Submitted via: BonkEnc v1.0.6
# 
DISCID=990ba30b
DTITLE=Roberto Carlos - Roberto Carlos em Jerusalem_Disc 1
DYEAR=2011
DGENRE=Pop
TTITLE0=Emoções
TTITLE1=Além do Horizonte
TTITLE2=Como Vai Voce
TTITLE3=Como é Grande o Meu Amor por Voce
TTITLE4=Detalhes
TTITLE5=Outra Vez
TTITLE6=Eu Sei que Vou te Amar
TTITLE7=Mulher Pequena
TTITLE8=Pensamentos
TTITLE9=Ave Maria
TTITLE10=Lady Laura
EXTD=
EXTT0=
EXTT1=
EXTT2=
EXTT3=
EXTT4=
EXTT5=
EXTT6=
EXTT7=
EXTT8=
EXTT9=
EXTT10=
PLAYORDER=
